<svg width="52" height="52" viewBox="0 0 52 52" fill="none" xmlns="http://www.w3.org/2000/svg">
<rect width="52" height="52" rx="26" fill="#166534"/>
<path d="M18.5566 37.5194C17.2262 35.2872 15.9119 33.0832 14.5703 30.8332C15.325 30.3654 16.0553 29.8891 16.8081 29.4504C18.0831 28.7088 19.3919 28.0441 20.8638 27.7675C21.9381 27.566 22.9966 27.626 23.9913 28.0694C24.9775 28.51 26.0162 28.6029 27.0606 28.6994C29.0809 28.8869 31.0731 28.5972 33.0644 28.3132C33.3531 28.2719 33.6419 28.2119 33.9325 28.1988C34.8419 28.1575 35.3762 28.9872 34.9647 29.8C34.6956 30.3325 34.2663 30.745 33.715 30.9241C32.0688 31.4594 30.3822 31.7482 28.6412 31.5072C28.4913 31.4866 28.3384 31.4641 28.195 31.4182C27.9194 31.33 27.6887 31.376 27.5978 31.6657C27.5041 31.9647 27.6991 32.1157 27.9606 32.2029C29.5 32.7157 31.0628 33.1685 32.5712 33.76C34.4613 34.5007 36.3156 34.1538 38.1878 33.7844C39.1956 33.5857 40.195 33.3419 41.2084 33.1741C41.5488 33.1179 41.935 33.1807 42.2706 33.2847C42.7591 33.4375 42.8997 33.8669 42.5594 34.2429C42.2387 34.5972 41.8441 34.9291 41.4166 35.1335C40.7575 35.4494 40.0525 35.6819 39.3494 35.89C37.6497 36.3944 35.9369 36.8566 34.2334 37.3525C32.3791 37.8925 30.5491 37.8204 28.72 37.225C27.3887 36.791 26.0341 36.4272 24.7103 35.9725C22.5822 35.2413 20.7119 35.6566 19.0403 37.1191C18.8922 37.2485 18.7375 37.3704 18.5575 37.5185L18.5566 37.5194Z" fill="white"/>
<path d="M29.5008 24.3997C27.3558 22.671 25.2287 20.9479 23.5571 18.7457C22.8305 17.7885 22.2165 16.7676 21.9746 15.5722C21.5677 13.5641 22.7068 11.5438 24.6793 10.8097C26.2712 10.2172 27.758 10.4535 29.0996 11.511C29.4727 11.8044 29.5608 11.8054 29.9462 11.5007C32.7071 9.31818 36.4205 10.9579 37.0805 13.9466C37.284 14.8682 37.0946 15.7588 36.7346 16.6176C36.2724 17.7201 35.5721 18.666 34.8071 19.5716C33.7365 20.8372 30.6905 23.6179 29.5008 24.4007V24.3997Z" fill="white"/>
<path d="M14.7845 41.5642C12.9114 38.4217 11.0636 35.3213 9.19141 32.1807C10.4767 31.4138 11.7461 30.6563 13.0577 29.8735C14.9205 32.9973 16.7777 36.1126 18.6527 39.256C17.357 40.0295 16.0867 40.787 14.7845 41.5642ZM16.0164 38.4554C15.8627 38.3551 15.7202 38.2023 15.5523 38.1657C15.3302 38.1179 15.0723 38.3992 15.0873 38.626C15.1033 38.8688 15.243 39.0104 15.4905 39.016C15.723 39.0217 15.9611 38.7732 16.0173 38.4554H16.0164Z" fill="white"/>
<path d="M16.0166 38.4557C15.9612 38.7735 15.7222 39.022 15.4897 39.0163C15.2422 39.0107 15.1025 38.8701 15.0866 38.6263C15.0716 38.3994 15.3303 38.1182 15.5516 38.166C15.7194 38.2026 15.8619 38.3544 16.0156 38.4557H16.0166Z" fill="white"/>
</svg>
