<svg width="32" height="40" viewBox="0 0 32 40" fill="#166534" xmlns="http://www.w3.org/2000/svg">
<path fill-rule="evenodd" clip-rule="evenodd" d="M15.9996 6.14622L14.1787 4.27451C11.3089 1.326 5.94263 2.30122 3.99474 6.10305C3.10586 7.8427 2.84936 10.4382 4.59409 13.8794C6.24739 17.1505 9.70129 21.1301 15.9996 25.5033C22.2953 21.1275 25.7492 17.1479 27.4051 13.8794C29.1498 10.4382 28.8958 7.8427 28.0044 6.10559C26.0565 2.30122 20.6903 1.326 17.8205 4.27451L15.9996 6.14622ZM14.7552 27.7331C-12.6221 8.83823 7.13626 -5.67577 15.6669 2.17677C15.7812 2.2809 15.8929 2.3901 16.0021 2.50439C16.1113 2.3901 16.2231 2.2809 16.3374 2.17677C24.8705 -5.67577 44.6213 8.84077 17.244 27.7331L17.8408 28.9217C17.8782 28.9964 17.9004 29.0777 17.9064 29.161C17.9123 29.2443 17.9017 29.328 17.8753 29.4072C17.8489 29.4865 17.8072 29.5597 17.7524 29.6228C17.6977 29.6859 17.6311 29.7376 17.5564 29.775C17.4817 29.8123 17.4003 29.8346 17.317 29.8405C17.2337 29.8464 17.1501 29.8359 17.0708 29.8095C16.9916 29.7831 16.9183 29.7413 16.8552 29.6866C16.7921 29.6319 16.7404 29.5652 16.7031 29.4905L16.6827 29.4474C16.7031 29.7267 16.7335 29.9604 16.7767 30.1839C16.9139 30.8696 17.1856 31.4232 17.8408 32.7311C18.5722 34.199 18.4376 35.6517 18.0338 36.8682C17.6351 38.0593 16.9621 39.07 16.5405 39.6999L16.5304 39.7176C16.484 39.787 16.4244 39.8466 16.3551 39.8929C16.2857 39.9393 16.2079 39.9715 16.126 39.9878C16.0442 40.004 15.96 40.004 15.8781 39.9878C15.7963 39.9715 15.7185 39.9392 15.6491 39.8929C15.5797 39.8465 15.5202 39.7869 15.4738 39.7176C15.4275 39.6482 15.3953 39.5704 15.379 39.4885C15.3627 39.4067 15.3627 39.3225 15.379 39.2406C15.3953 39.1588 15.4275 39.081 15.4739 39.0116C15.9005 38.3716 16.4897 37.4878 16.8275 36.4644C17.1653 35.4587 17.2415 34.3717 16.7031 33.3L16.67 33.2289C16.0605 32.0098 15.705 31.3038 15.5323 30.4302C15.4611 30.0529 15.417 29.671 15.4002 29.2874L15.2986 29.4905C15.2617 29.5657 15.2102 29.6329 15.1472 29.6881C15.0841 29.7433 15.0108 29.7855 14.9314 29.8122C14.852 29.839 14.7681 29.8497 14.6845 29.8439C14.6009 29.838 14.5193 29.8157 14.4444 29.7781C14.3695 29.7406 14.3027 29.6886 14.248 29.6251C14.1933 29.5617 14.1517 29.488 14.1256 29.4084C14.0994 29.3288 14.0893 29.2448 14.0958 29.1612C14.1023 29.0777 14.1253 28.9963 14.1634 28.9217L14.7602 27.7331H14.7552ZM10.9533 5.23195C9.30511 4.77482 7.18706 5.44274 6.25501 7.25858C5.92232 7.91381 5.6328 9.00839 6.05184 10.649C6.21184 11.2687 7.10325 11.1518 7.28864 10.5398C7.82196 8.76966 8.88099 6.86494 10.74 6.24273C11.2911 6.05733 11.5121 5.38687 10.9533 5.23195Z" fill="#166534"/>
</svg>
