<svg width="43" height="43" viewBox="0 0 43 43" fill="none" xmlns="http://www.w3.org/2000/svg">
<path d="M17.5 0C14.8478 0 12.3043 1.05357 10.4289 2.92893C8.55357 4.8043 7.5 7.34783 7.5 10C7.5 12.6522 8.55357 15.1957 10.4289 17.0711C12.3043 18.9464 14.8478 20 17.5 20C20.1522 20 22.6957 18.9464 24.5711 17.0711C26.4464 15.1957 27.5 12.6522 27.5 10C27.5 7.34783 26.4464 4.8043 24.5711 2.92893C22.6957 1.05357 20.1522 0 17.5 0ZM10 10C10 8.01088 10.7902 6.10322 12.1967 4.6967C13.6032 3.29018 15.5109 2.5 17.5 2.5C19.4891 2.5 21.3968 3.29018 22.8033 4.6967C24.2098 6.10322 25 8.01088 25 10C25 11.9891 24.2098 13.8968 22.8033 15.3033C21.3968 16.7098 19.4891 17.5 17.5 17.5C15.5109 17.5 13.6032 16.7098 12.1967 15.3033C10.7902 13.8968 10 11.9891 10 10ZM5.0225 22.5C4.36409 22.4974 3.71164 22.6247 3.10256 22.8748C2.49348 23.1249 1.93976 23.4927 1.47315 23.9572C1.00654 24.4217 0.636212 24.9738 0.383416 25.5818C0.13062 26.1897 0.00032378 26.8416 0 27.5C0 31.7275 2.0825 34.915 5.3375 36.9925C8.5425 39.035 12.8625 40 17.5 40C19.8875 40 22.19 39.745 24.3 39.2175L22.35 37.0825C20.84 37.3575 19.2125 37.5 17.5 37.5C13.1625 37.5 9.3575 36.59 6.6825 34.8825C4.0575 33.2075 2.5 30.775 2.5 27.5C2.5 26.1175 3.62 25 5.0225 25H18.2475C18.6668 24.0699 19.2503 23.2231 19.97 22.5H5.02H5.0225ZM31.2475 25.0075L29.6775 23.775C28.4957 22.8462 27.0076 22.3961 25.5092 22.5141C24.0107 22.6322 22.6115 23.3098 21.5897 24.4122C20.5679 25.5146 19.9984 26.9611 19.9942 28.4643C19.9901 29.9674 20.5518 31.417 21.5675 32.525L30.325 42.1C30.4421 42.2281 30.5846 42.3304 30.7435 42.4004C30.9023 42.4704 31.0739 42.5065 31.2475 42.5065C31.4211 42.5065 31.5927 42.4704 31.7515 42.4004C31.9104 42.3304 32.0529 42.2281 32.17 42.1L40.93 32.525C41.9457 31.417 42.5074 29.9674 42.5032 28.4643C42.4991 26.9611 41.9296 25.5146 40.9078 24.4122C39.886 23.3098 38.4868 22.6322 36.9883 22.5141C35.4898 22.3961 34.0018 22.8462 32.82 23.775L31.2475 25.0075Z" fill="#166534"/>
</svg>
