<svg width="42" height="38" viewBox="0 0 42 38" fill="#166534" xmlns="http://www.w3.org/2000/svg">
<path d="M36.9854 4.99037C36.0329 4.03989 34.9012 3.28574 33.6551 2.77116C32.4089 2.25658 31.0729 1.9917 29.7236 1.9917C28.3743 1.9917 27.0383 2.25658 25.7922 2.77116C24.546 3.28574 23.4143 4.03989 22.4618 4.99037L21 6.46302L19.5382 4.99037C18.5857 4.03989 17.454 3.28574 16.2078 2.77116C14.9617 2.25658 13.6257 1.9917 12.2764 1.9917C10.9271 1.9917 9.59107 2.25658 8.34494 2.77116C7.0988 3.28574 5.96706 4.03989 5.01463 4.99037C0.989806 8.99297 0.743001 15.7521 5.812 20.8875L21 35.9917L36.188 20.8875C41.257 15.7521 41.0102 8.99297 36.9854 4.99037Z" stroke="white" stroke-width="3" stroke-linecap="round" stroke-linejoin="round"/>
<path d="M20.9999 6.46313L15.0576 12.3915C14.3063 13.1447 13.8848 14.1627 13.8848 15.2236C13.8848 16.2845 14.3063 17.3024 15.0576 18.0556V18.0556C15.815 18.8027 16.8385 19.2219 17.9053 19.2219C18.9721 19.2219 19.9957 18.8027 20.7531 18.0556L25.0437 13.8831C26.11 12.8339 27.5495 12.2454 29.0495 12.2454C30.5495 12.2454 31.989 12.8339 33.0553 13.8831L37.6117 18.4143M32.3909 24.6637L28.5939 20.8876M26.6954 30.3277L22.8984 26.5517" stroke="white" stroke-width="3" stroke-linecap="round" stroke-linejoin="round"/>
</svg>
